<?xml version="1.0" encoding="UTF-8" standalone="no"?>
<!DOCTYPE svg PUBLIC "-//W3C//DTD SVG 1.1//EN" "http://www.w3.org/Graphics/SVG/1.1/DTD/svg11.dtd">
<!-- Generated by Microsoft Visio, SVG Export SampleArchitectureOverview.svg Page-1 -->
<svg xmlns="http://www.w3.org/2000/svg" xmlns:xlink="http://www.w3.org/1999/xlink" xmlns:ev="http://www.w3.org/2001/xml-events"
		xmlns:v="http://schemas.microsoft.com/visio/2003/SVGExtensions/" width="6.3in" height="3.5in"
		viewBox="0 0 453.028 255.54" xml:space="preserve" color-interpolation-filters="sRGB" class="st24">
	<v:documentProperties v:langID="1033" v:viewMarkup="false">
		<v:userDefs>
			<v:ud v:nameU="msvNoAutoConnect" v:val="VT0(1):26"/>
		</v:userDefs>
	</v:documentProperties>

	<style type="text/css">
	<![CDATA[
		.st1 {fill:#ffffff;stroke:#000000;stroke-linecap:round;stroke-linejoin:round;stroke-width:0.75}
		.st2 {fill:#50e6ff;stroke:none;stroke-linecap:butt;stroke-width:0.75}
		.st3 {fill:#ffffff;stroke:none;stroke-linecap:butt;stroke-width:0.75}
		.st4 {fill:url(#grad0-17);stroke:none;stroke-linecap:butt;stroke-width:0.75}
		.st5 {fill:#53b1e0;stroke:none;stroke-linecap:butt;stroke-width:0.75}
		.st6 {fill:#9cebff;stroke:none;stroke-linecap:butt;stroke-width:0.75}
		.st7 {fill:url(#grad0-25);stroke:none;stroke-linecap:butt;stroke-width:0.75}
		.st8 {fill:#000000;font-family:Calibri;font-size:0.75em}
		.st9 {font-size:1em}
		.st10 {fill:#0078d7;stroke:none;stroke-linecap:butt;stroke-width:0.653846}
		.st11 {fill:#0078d7;font-family:Segoe UI;font-size:0.75em}
		.st12 {fill:#ffffff;stroke:#ffffff;stroke-linecap:butt;stroke-width:1.5}
		.st13 {fill:#0078d7;stroke:none;stroke-linecap:butt;stroke-width:0.75}
		.st14 {marker-end:url(#mrkr2-89);stroke:#000000;stroke-linecap:round;stroke-linejoin:round;stroke-width:0.75}
		.st15 {fill:#000000;fill-opacity:1;stroke:#000000;stroke-opacity:1;stroke-width:0.22935779816514}
		.st16 {fill:#ffffff;stroke:none;stroke-linecap:butt;stroke-width:7.2}
		.st17 {fill:#000000;font-family:Calibri;font-size:0.666664em}
		.st18 {fill:#0078d7;stroke:none;stroke-linecap:butt;stroke-width:3.4753}
		.st19 {fill:#ffffff;stroke:none;stroke-linecap:butt}
		.st20 {fill:url(#grad0-108);stroke:none;stroke-linecap:butt;stroke-width:0.75}
		.st21 {fill:#003067;stroke:none;stroke-linecap:butt;stroke-width:0.75}
		.st22 {fill:url(#grad0-118);stroke:none;stroke-linecap:butt;stroke-width:0.75}
		.st23 {fill:#005ba1;stroke:none;stroke-linecap:butt;stroke-width:0.75}
		.st24 {fill:none;fill-rule:evenodd;font-size:12px;overflow:visible;stroke-linecap:square;stroke-miterlimit:3}
	]]>
	</style>

	<defs id="Patterns_And_Gradients">
		<linearGradient id="grad0-17" x1="0" y1="0" x2="1" y2="0" gradientTransform="rotate(-133.54829310906 0.5 0.5)">
			<stop offset="0" stop-color="#1988d9" stop-opacity="1"/>
			<stop offset="0.9" stop-color="#54aef0" stop-opacity="1"/>
		</linearGradient>
		<linearGradient id="grad0-25" x1="0" y1="0" x2="1" y2="0" gradientTransform="rotate(65.834982258294 0.5 0.5)">
			<stop offset="0.1" stop-color="#54aef0" stop-opacity="1"/>
			<stop offset="0.3" stop-color="#4fabee" stop-opacity="1"/>
			<stop offset="0.5" stop-color="#41a2e9" stop-opacity="1"/>
			<stop offset="0.7" stop-color="#2a93e0" stop-opacity="1"/>
			<stop offset="0.9" stop-color="#1988d9" stop-opacity="1"/>
		</linearGradient>
		<linearGradient id="grad0-108" x1="0" y1="0" x2="1" y2="0" gradientTransform="rotate(90 0.5 0.5)">
			<stop offset="0" stop-color="#b3b2b3" stop-opacity="1"/>
			<stop offset="0.4" stop-color="#afaeaf" stop-opacity="1"/>
			<stop offset="0.8" stop-color="#a2a2a2" stop-opacity="1"/>
			<stop offset="1" stop-color="#979797" stop-opacity="1"/>
		</linearGradient>
		<linearGradient id="grad0-118" x1="0" y1="0" x2="1" y2="0" gradientTransform="rotate(-90 0.5 0.5)">
			<stop offset="0" stop-color="#0078d4" stop-opacity="1"/>
			<stop offset="0.2" stop-color="#1380da" stop-opacity="1"/>
			<stop offset="0.5" stop-color="#3c91e5" stop-opacity="1"/>
			<stop offset="0.8" stop-color="#559cec" stop-opacity="1"/>
			<stop offset="1" stop-color="#5ea0ef" stop-opacity="1"/>
		</linearGradient>
	</defs>
	<defs id="Markers">
		<g id="lend2">
			<path d="M 1 1 L 0 0 L 1 -1 L 1 1" style="stroke: none"/>
		</g>
		<marker id="mrkr2-89" class="st15" v:arrowType="2" v:arrowSize="2" v:setback="0" refX="-0" orient="auto"
				markerUnits="strokeWidth" overflow="visible">
			<use xlink:href="#lend2" transform="scale(-4.4,-4.4) matrix(1,0,0,1,0,0)"/>
		</marker>
	</defs>
	<g v:mID="0" v:index="1" v:groupContext="foregroundPage">
		<title>Page-1</title>
		<v:pageProperties v:drawingScale="1" v:pageScale="1" v:drawingUnits="19" v:shadowOffsetX="9" v:shadowOffsetY="-9"/>
		<v:layer v:name="On-premises infrastructure services" v:index="0"/>
		<v:layer v:name="Connector" v:index="1"/>
		<g id="group50-1" transform="translate(44.3,-48.8)" v:mID="50" v:groupContext="group">
			<v:userDefs>
				<v:ud v:nameU="visVersion" v:val="VT0(15):26"/>
			</v:userDefs>
			<title>Boundary.50</title>
			<g id="shape51-2" v:mID="51" v:groupContext="shape">
				<title>Sheet.51</title>
				<v:userDefs>
					<v:ud v:nameU="visVersion" v:val="VT0(15):26"/>
				</v:userDefs>
				<rect x="0" y="77.9" width="144" height="177.6" rx="9" ry="9" class="st1"/>
			</g>
		</g>
		<g id="group47-4" transform="translate(276.1,-48.8)" v:mID="47" v:groupContext="group">
			<v:userDefs>
				<v:ud v:nameU="visVersion" v:val="VT0(15):26"/>
			</v:userDefs>
			<title>Boundary</title>
			<g id="shape48-5" v:mID="48" v:groupContext="shape">
				<title>Sheet.48</title>
				<v:userDefs>
					<v:ud v:nameU="visVersion" v:val="VT0(15):26"/>
				</v:userDefs>
				<rect x="0" y="77.9" width="144" height="177.6" rx="9" ry="9" class="st1"/>
			</g>
		</g>
		<g id="group1-7" transform="translate(332.3,-174.8)" v:mID="1" v:groupContext="group">
			<title>Azure Active Directory</title>
			<desc>Azure Active Directory</desc>
			<g id="shape2-8" v:mID="2" v:groupContext="shape">
				<title>Sheet.2</title>
				<v:userDefs>
					<v:ud v:nameU="msvDisableCustomConnectionPoints" v:prompt="" v:val="VT0(1):5"/>
				</v:userDefs>
				<path d="M 1.8 240.8 L 15.7 251.6 L 29.9 240.7 L 31.7 243.2 L 15.7 255.5 L 0 243.2 L 1.8 240.8 Z" class="st2"/>
			</g>
			<g id="shape3-10" v:mID="3" v:groupContext="shape" transform="translate(2.8,-6.2)">
				<title>Sheet.3</title>
				<v:userDefs>
					<v:ud v:nameU="msvDisableCustomConnectionPoints" v:prompt="" v:val="VT0(1):5"/>
				</v:userDefs>
				<path d="M 0 245.6 L 12.9 227.2 L 26 245.6 L 12.9 255.5 L 0 245.6 Z" class="st3"/>
			</g>
			<g id="shape4-12" v:mID="4" v:groupContext="shape" transform="translate(2.8,-6.2)">
				<title>Sheet.4</title>
				<v:userDefs>
					<v:ud v:nameU="msvDisableCustomConnectionPoints" v:prompt="" v:val="VT0(1):5"/>
				</v:userDefs>
				<path d="M 12.9 227.2 L 12.9 255.5 L 0 245.6 L 12.9 227.2 Z" class="st2"/>
			</g>
			<g id="shape5-14" v:mID="5" v:groupContext="shape" transform="translate(15.7,-6.2)">
				<title>Sheet.5</title>
				<v:userDefs>
					<v:ud v:nameU="msvDisableCustomConnectionPoints" v:prompt="" v:val="VT0(1):5"/>
				</v:userDefs>
				<path d="M 0 227.2 L 0 255.5 L 13.2 245.6 L 0 227.2 Z" class="st4"/>
			</g>
			<g id="shape6-18" v:mID="6" v:groupContext="shape" transform="translate(15.7,-6.2)">
				<title>Sheet.6</title>
				<v:userDefs>
					<v:ud v:nameU="msvDisableCustomConnectionPoints" v:prompt="" v:val="VT0(1):5"/>
				</v:userDefs>
				<path d="M 0 241.8 L 13.2 245.6 L 0 255.5 L 0 241.8 Z" class="st5"/>
			</g>
			<g id="shape7-20" v:mID="7" v:groupContext="shape" transform="translate(2.8,-6.2)">
				<title>Sheet.7</title>
				<v:userDefs>
					<v:ud v:nameU="msvDisableCustomConnectionPoints" v:prompt="" v:val="VT0(1):5"/>
				</v:userDefs>
				<path d="M 12.9 255.5 L 0 245.6 L 12.9 241.8 L 12.9 255.5 Z" class="st6"/>
			</g>
			<g id="shape8-22" v:mID="8" v:groupContext="shape" transform="translate(15.7,1.7)">
				<title>Sheet.8</title>
				<v:userDefs>
					<v:ud v:nameU="msvDisableCustomConnectionPoints" v:prompt="" v:val="VT0(1):5"/>
				</v:userDefs>
				<path d="M 0 255.5 L 16 243.2 L 14.2 240.7 L 0 251.6 L 0 255.5 Z" class="st7"/>
			</g>
			<g id="shape1-26" v:mID="1" v:groupContext="groupContent">
				<v:textBlock v:margins="rect(0,0,0,0)"/>
				<v:textRect cx="15.84" cy="266.342" width="63.36" height="21.6036"/>
				<text x="-7" y="263.6" class="st8" v:langID="1033"><v:paragraph v:horizAlign="1"/><v:tabList/>Azure Active <tspan
							x="-1.16" dy="1.2em" class="st9">Directory</tspan></text>			</g>
		</g>
		<g id="group9-29" transform="translate(392.2,-39.6)" v:mID="9" v:groupContext="group">
			<title>Microsoft Azure</title>
			<desc>Microsoft Azure</desc>
			<g id="shape10-30" v:mID="10" v:groupContext="shape" transform="translate(-2.1,-6.3)">
				<title>Sheet.10</title>
				<path d="M 25.1 250.1 C 24 250.1 23.1 250.8 22.6 251.8 L 6.9 251.8 C 4.3 251.8 2.1 249.6 2.1 246.9 C 2.1 244.3 4.2 242.1 6.9 242.1 L 7 242.1 L 7 242.1 L 9.2 242.1 C 9.3 241.6 9.4 241 9.6 240.5 C 9.7 240.3 9.8 240.2 9.9 240 C 11 238.1 13.1 236.8 15.5 236.8 C 17.6 236.8 19.5 237.8 20.6 239.4 C 21.3 239.1 22 238.8 22.8 238.7 C 21.2 236.3 18.6 234.7 15.5 234.7 C 11.9 234.7 8.8 236.9 7.6 240 C 7.6 240 7.6 240 7.6 240 C 7.6 240 7.6 240 7.6 240 L 7 240 C 3.1 240 0 243.1 0 247 C 0 250.8 3.1 253.9 7 253.9 L 22.7 253.9 C 23.1 254.9 24 255.5 25.1 255.5 C 26.6 255.5 27.8 254.4 27.8 252.8 C 27.8 251.3 26.6 250.1 25.1 250.1 Z" class="st10"/>
			</g>
			<g id="shape11-32" v:mID="11" v:groupContext="shape" transform="translate(9,1.4)">
				<title>Sheet.11</title>
				<path d="M 24.7 238.5 C 23.1 235.3 19.8 233.1 16.1 233.1 C 11.5 233.1 7.7 236.3 6.7 240.6 C 4.5 240.8 2.5 242 1.3 243.8 L 12.7 243.8 C 13.5 242.8 14.7 242.2 16.1 242.2 C 18.4 242.2 20.4 244.1 20.4 246.4 C 20.4 248.8 18.4 250.7 16.1 250.7 C 14.7 250.7 13.6 250.1 12.7 249.1 L 0 249.1 C 0.5 252.7 3.6 255.5 7.4 255.5 C 7.4 255.5 7.4 255.5 7.4 255.5 L 24.6 255.5 C 24.6 255.5 24.6 255.5 24.6 255.5 C 29.3 255.5 33.2 251.7 33.2 247 C 33.2 242.3 29.4 238.5 24.7 238.5 Z"
						class="st10"/>
			</g>
			<g id="shape9-34" v:mID="9" v:groupContext="groupContent">
				<v:textBlock v:margins="rect(0,0,0,0)" v:verticalAlign="0"/>
				<v:textRect cx="21.0937" cy="266.342" width="40.25" height="21.6036"/>
				<text x="2.2" y="263.6" class="st11" v:langID="1033"><v:paragraph v:horizAlign="1"/><v:tabList/>Microsoft<v:newlineChar/><tspan
							x="8.46" dy="1.2em" class="st9"> </tspan>Azure</text>			</g>
		</g>
		<g id="group12-37" transform="translate(100.3,-123.4)" v:mID="12" v:groupContext="group">
			<title>Web App (opaque)  (was websites)</title>
			<desc>Web App</desc>
			<g id="shape13-38" v:mID="13" v:groupContext="shape">
				<title>Sheet.13</title>
				<path d="M 27.3 232.7 C 24.5 229.1 20.3 227.2 16 227.2 C 13 227.2 10 228.1 7.4 230.1 C 1.2 234.9 0 243.8 4.8 250 C 7.5 253.6 11.8 255.5 16 255.5 C 19 255.5 22.1 254.6 24.6 252.6 C 30.9 247.9 32 238.9 27.3 232.7 Z" class="st12"/>
			</g>
			<g id="group14-40" v:mID="14" v:groupContext="group">
				<title>Sheet.14</title>
				<g id="group15-41" v:mID="15" v:groupContext="group">
					<title>Sheet.15</title>
					<g id="shape16-42" v:mID="16" v:groupContext="shape">
						<title>Sheet.16</title>
						<path d="M 23.5 251.2 C 21.3 252.9 18.6 253.7 16 253.7 C 12.3 253.7 8.7 252 6.2 248.9 C 2.1 243.4 3.1 235.7 8.5 231.6 C 10.8 229.8 13.4 229 16 229 C 19.7 229 23.4 230.7 25.8 233.9 C 30 239.3 28.9 247 23.5 251.2 Z M 27.3 232.7 C 24.5 229.1 20.3 227.2 16 227.2 C 13 227.2 10 228.1 7.4 230.1 C 1.2 234.9 0 243.8 4.8 250 C 7.5 253.6 11.8 255.5 16 255.5 C 19 255.5 22.1 254.6 24.6 252.6 C 30.9 247.9 32 238.9 27.3 232.7 Z" class="st13"/>
					</g>
				</g>
				<g id="group17-44" transform="translate(5.1,-4.4)" v:mID="17" v:groupContext="group">
					<title>Sheet.17</title>
					<g id="group18-45" transform="translate(0.4,-0.2)" v:mID="18" v:groupContext="group">
						<title>Sheet.18</title>
						<g id="group19-46" transform="translate(0.4,3.1)" v:mID="19" v:groupContext="group">
							<title>Sheet.19</title>
							<g id="shape20-47" v:mID="20" v:groupContext="shape">
								<title>Sheet.20</title>
								<path d="M 3.7 248.5 C 2.9 247.7 2.2 246.9 1.7 246.2 C 0.5 248.6 0.1 251.1 0 253.1 C 0.1 253.2 0.1 253.3 0.2 253.5 C 0.8 254.2 1.6 255 2.3 255.5 C 2.2 253.9 2.3 251.3 3.7 248.5 Z" class="st13"/>
							</g>
						</g>
						<g id="shape21-49" v:mID="21" v:groupContext="shape" transform="translate(3.4,-9)">
							<title>Sheet.21</title>
							<path d="M 5.1 248 C 4 248.8 2.8 249.8 1.7 251 C 1 251.7 0.5 252.4 0 253.1 C 0.5 253.9 1.1 254.7 1.9 255.5 C 2.6 254.7 3.3 253.8 4.2 253 C 5.3 251.9 6.4 251.1 7.4 250.4 C 6.6 249.6 5.8 248.8 5.1 248 Z" class="st13"/>
						</g>
						<g id="group22-51" transform="translate(10.2,-15.2)" v:mID="22" v:groupContext="group">
							<title>Sheet.22</title>
							<g id="shape23-52" v:mID="23" v:groupContext="shape">
								<title>Sheet.23</title>
								<path d="M 10 253.5 C 9.5 252.8 8.9 252.2 8.3 251.6 C 6.3 251.3 3.4 251.4 0 253.2 C 0.8 254 1.6 254.8 2.3 255.5 C 6.8 253.1 10 253.5 10 253.5 Z" class="st13"/>
							</g>
						</g>
						<g id="group24-54" transform="translate(-2.2,-9.4)" v:mID="24" v:groupContext="group">
							<title>Sheet.24</title>
							<g id="shape25-55" v:mID="25" v:groupContext="shape">
								<title>Sheet.25</title>
								<path d="M 2.2 255.5 C 2.5 254.8 2.9 254.2 3.4 253.5 C 1.4 250.4 1.5 247.9 1.7 246.7 C 1.3 247.2 0.8 247.7 0.4 248.3 C 0 249.9 0 252.4 2.2 255.5 Z" class="st13"/>
							</g>
						</g>
						<g id="group26-57" transform="translate(4.2,-0.7)" v:mID="26" v:groupContext="group">
							<title>Sheet.26</title>
							<g id="shape27-58" v:mID="27" v:groupContext="shape">
								<title>Sheet.27</title>
								<path d="M 3.5 249.4 C 2.6 248.7 1.8 248 1.2 247.3 C 0.7 247.9 0.3 248.6 0 249.2 C 0.6 249.9 1.3 250.5 2.1 251.2 C 7.2 255.2 12.2 255.5 15.1 255.5 C 15.2 255.5 16.1 254.3 16.6 253.6 C 15.4 253.9 10 254.5 3.5 249.4 Z" class="st13"/>
							</g>
						</g>
						<g id="group28-60" transform="translate(2.2,-7)" v:mID="28" v:groupContext="group">
							<title>Sheet.28</title>
							<g id="shape29-61" v:mID="29" v:groupContext="shape">
								<title>Sheet.29</title>
								<path d="M 0 253.2 C 0.5 253.9 1.2 254.7 2 255.5 C 2.3 254.9 2.7 254.2 3.2 253.6 C 2.4 252.7 1.7 251.9 1.2 251.1 C 0.7 251.8 0.3 252.5 0 253.2 Z" class="st13"/>
							</g>
						</g>
						<g id="group30-63" transform="translate(10.8,-5.3)" v:mID="30" v:groupContext="group">
							<title>Sheet.30</title>
							<g id="shape31-64" v:mID="31" v:groupContext="shape">
								<title>Sheet.31</title>
								<path d="M 0 246.7 C 4.6 251 10.1 254.6 11.5 255.5 C 11.6 255.2 11.7 254.8 11.8 254.5 C 10.3 253.4 6.4 250.3 1.7 245.7 C 1.2 245.9 0.6 246.3 0 246.7 Z" class="st13"/>
							</g>
						</g>
						<g id="group32-66" transform="translate(5.1,-16.5)" v:mID="32" v:groupContext="group">
							<title>Sheet.32</title>
							<g id="shape33-67" v:mID="33" v:groupContext="shape">
								<title>Sheet.33</title>
								<path d="M 5.1 254.4 C 4 253.3 2.8 252 1.6 250.7 C 1.1 250.8 0.5 251.1 0 251.3 C 0.9 252.7 2 254.2 3.3 255.5 C 3.9 255.1 4.5 254.8 5.1 254.4 Z" class="st13"/>
							</g>
						</g>
						<g id="shape34-69" v:mID="34" v:groupContext="shape" transform="translate(8.4,-14.1)">
							<title>Sheet.34</title>
							<path d="M 1.9 252 C 1.3 252.3 0.6 252.8 0 253.2 C 0.7 254 1.5 254.8 2.3 255.5 C 2.9 255.1 3.7 254.7 4.2 254.3 C 3.5 253.6 2.7 252.8 1.9 252 Z" class="st13"/>
						</g>
						<g id="shape35-71" v:mID="35" v:groupContext="shape" transform="translate(8.4,-14)">
							<title>Sheet.35</title>
							<path d="M 1.7 251.8 C 1.1 252.2 0.6 252.6 0 253 C 0.7 253.8 1.8 254.8 2.6 255.5 C 3.2 255.1 3.7 254.7 4.2 254.4 C 3.5 253.7 2.5 252.7 1.7 251.8 Z" class="st13"/>
						</g>
					</g>
					<g id="group36-73" transform="translate(15.3,-6.2)" v:mID="36" v:groupContext="group">
						<title>Sheet.36</title>
						<g id="shape37-74" v:mID="37" v:groupContext="shape">
							<title>Sheet.37</title>
							<path d="M 1.4 250.4 C 0.2 251.3 0 253 0.9 254.2 C 1.8 255.3 3.5 255.5 4.6 254.7 C 5.8 253.8 6 252.1 5.1 250.9 C 4.2 249.8 2.5 249.6 1.4 250.4 Z" class="st13"/>
						</g>
					</g>
					<g id="group38-76" transform="translate(9.9,-2.3)" v:mID="38" v:groupContext="group">
						<title>Sheet.38</title>
						<g id="shape39-77" v:mID="39" v:groupContext="shape">
							<title>Sheet.39</title>
							<path d="M 1.3 250.8 C 0.2 251.7 0 253.2 0.8 254.3 C 1.6 255.3 3.2 255.5 4.3 254.7 C 5.3 253.9 5.5 252.4 4.7 251.3 C 3.9 250.2 2.4 250 1.3 250.8 Z" class="st13"/>
						</g>
					</g>
					<g id="group40-79" transform="translate(0,-5.4)" v:mID="40" v:groupContext="group">
						<title>Sheet.40</title>
						<g id="shape41-80" v:mID="41" v:groupContext="shape">
							<title>Sheet.41</title>
							<path d="M 1.9 248.4 C 0.3 249.6 0 252 1.3 253.6 C 2.5 255.2 4.8 255.5 6.5 254.3 C 8.1 253 8.4 250.7 7.2 249.1 C 5.9 247.4 3.6 247.1 1.9 248.4 Z" class="st13"/>
						</g>
					</g>
				</g>
			</g>
			<g id="shape12-82" v:mID="12" v:groupContext="groupContent">
				<v:textBlock v:margins="rect(0,0,0,0)" v:verticalAlign="0"/>
				<v:textRect cx="16.0185" cy="260.942" width="39.73" height="10.8036"/>
				<text x="-2.6" y="263.6" class="st11" v:langID="1033"><v:paragraph v:horizAlign="1"/><v:tabList/>Web App</text>			</g>
		</g>
		<g id="shape43-84" v:mID="43" v:groupContext="shape" v:layerMember="1" transform="translate(131.5,-137.6)">
			<title>Dynamic connector</title>
			<desc>① Acquire token client credential (app password)</desc>
			<v:textBlock v:margins="rect(4,4,4,4)"/>
			<v:textRect cx="94.187" cy="209.317" width="67.8" height="36.8035"/>
			<path d="M 0 255.5 C 14.3 255.5 14.3 201.1 200.8 201.1" class="st14"/>
			<rect v:rectContext="textBkgnd" x="65.2" y="194.9" width="58" height="28.8" class="st16"/>
			<text x="65.2" y="202.1" class="st17" v:langID="1033"><v:paragraph v:horizAlign="1"/><v:tabList/>① Acquire token<v:newlineChar/><tspan
						x="67.96" dy="1.2em" class="st9">client credential<v:newlineChar/></tspan><tspan x="69.13" dy="1.2em"
						class="st9">(app password)</tspan></text>		</g>
		<g id="shape44-94" v:mID="44" v:groupContext="shape" transform="translate(336.2,-107.5)">
			<title>API App</title>
			<desc>VC Request API</desc>
			<v:textBlock v:margins="rect(0,0,0,0)" v:verticalAlign="0"/>
			<v:textRect cx="11.9212" cy="260.942" width="63.87" height="10.8036"/>
			<path d="M 22.7 229 L 1.1 229 C 0.5 229 0 229.5 0 230.2 L 0 247.6 C 0 248.2 0.5 248.7 1.1 248.7 L 6.7 248.7 C 7.1 250.1 8.5 251.1 10.1 251.1 C 12 251.1 13.6 249.5 13.6 247.6 C 13.6 245.7 12 244.1 10.1 244.1 C 8.5 244.1 7.1 245 6.7 246.4 L 2.3 246.4 L 2.3 234 L 21.6 234 L 21.6 246.4 L 17.9 246.4 C 17.4 242.6 14 239.6 10.1 239.6 C 8.7 239.6 7.4 240 6.3 240.6 L 7.3 242.6 C 8.1 242.2 9.1 241.9 10 241.9 C 13.1 241.9 15.7 244.4 15.7 247.6 C 15.7 250.7 13.1 253.3 10 253.3 C 9.1 253.3 8.2 253 7.3 252.5 L 6.3 254.6 C 7.4 255.2 8.7 255.5 10.1 255.5 C 14 255.5 17.4 252.5 17.9 248.7 L 22.7 248.7 C 23.3 248.7 23.8 248.2 23.8 247.6 L 23.8 230.2 C 23.8 229.6 23.3 229 22.7 229 Z" class="st18"/>
			<text x="-18.8" y="263.6" class="st11" v:langID="1033"><v:paragraph v:horizAlign="1"/><v:tabList/>VC Request API</text>		</g>
		<g id="shape45-97" v:mID="45" v:groupContext="shape" v:layerMember="1" transform="translate(131.5,-138.2)">
			<title>Dynamic connector.45</title>
			<desc>② Create issuance or verification request</desc>
			<v:textBlock v:margins="rect(4,4,4,4)"/>
			<v:textRect cx="100.806" cy="272.401" width="147.33" height="17.6036"/>
			<path d="M 0 256.1 C 14.3 256.1 14.3 262.3 27.1 266.2 C 49.2 272.9 109.3 272.9 204.3 272.9" class="st14"/>
			<rect v:rectContext="textBkgnd" x="32.1" y="267.6" width="137.5" height="9.6" class="st19"/>
			<text x="32" y="274.8" class="st17" v:langID="1033"><v:paragraph v:horizAlign="1"/><v:tabList/>② Create issuance or verification request</text>		</g>
		<g id="group52-104" transform="translate(35.3,-39.6)" v:mID="52" v:groupContext="group">
			<title>Server Farm</title>
			<desc>local</desc>
			<g id="shape53-105" v:mID="53" v:groupContext="shape" transform="translate(0,-2)">
				<title>Sheet.53</title>
				<v:userDefs>
					<v:ud v:nameU="msvDisableCustomConnectionPoints" v:prompt="" v:val="VT0(1):5"/>
				</v:userDefs>
				<path d="M 21.3 254.4 A 1.2 1.2 0 0 1 20.1 255.5 L 1.2 255.5 A 1.2 1.2 0 0 1 0 254.4 L 0 224.1 A 1.2 1.2 0 0 1 1.2 223 L 20.1 223 A 1.2 1.2 0 0 1 21.3 224.1 L 21.3 254.4 Z"
						class="st20"/>
			</g>
			<g id="shape54-109" v:mID="54" v:groupContext="shape" transform="translate(3.1,-18.1)">
				<title>Sheet.54</title>
				<v:userDefs>
					<v:ud v:nameU="msvDisableCustomConnectionPoints" v:prompt="" v:val="VT0(1):5"/>
				</v:userDefs>
				<path d="M 0 253 A 2.4 2.4 0 0 1 2.3 250.5 L 12.9 250.5 A 2.4 2.4 0 0 1 15.3 253 A 2.4 2.4 0 0 1 12.9 255.5 L 2.3 255.5 A 2.4 2.4 0 0 1 0 253 Z M 0 245.5 A 2.4 2.4 0 0 1 2.3 242.9 L 12.9 242.9 A 2.4 2.4 0 0 1 15.3 245.5 A 2.4 2.4 0 0 1 12.9 248 L 2.3 248 A 2.4 2.4 0 0 1 0 245.5 Z" class="st21"/>
			</g>
			<g id="shape55-111" v:mID="55" v:groupContext="shape" transform="translate(4.4,-26.5)">
				<title>Sheet.55</title>
				<v:userDefs>
					<v:ud v:nameU="msvDisableCustomConnectionPoints" v:prompt="" v:val="VT0(1):5"/>
				</v:userDefs>
				<ellipse cx="1.7" cy="253.8" rx="1.7" ry="1.7" class="st2"/>
			</g>
			<g id="shape56-113" v:mID="56" v:groupContext="shape" transform="translate(4.4,-18.9)">
				<title>Sheet.56</title>
				<v:userDefs>
					<v:ud v:nameU="msvDisableCustomConnectionPoints" v:prompt="" v:val="VT0(1):5"/>
				</v:userDefs>
				<ellipse cx="1.7" cy="253.8" rx="1.7" ry="1.7" class="st2"/>
			</g>
			<g id="shape57-115" v:mID="57" v:groupContext="shape" transform="translate(13.6)">
				<title>Sheet.57</title>
				<v:userDefs>
					<v:ud v:nameU="msvDisableCustomConnectionPoints" v:prompt="" v:val="VT0(1):5"/>
				</v:userDefs>
				<path d="M 15.7 241.3 L 9.2 238.1 L 2.5 241.3 L 0 246.1 L 0 255 a 0.6 0.6 -180 0 0 0.6 0.6 L 17.8 255.5 a 0.6 0.6 -180 0 0 0.6 -0.6 L 18.4 246.1 L 15.7 241.3 Z"
						class="st22"/>
			</g>
			<g id="shape58-119" v:mID="58" v:groupContext="shape" transform="translate(11.3,-6.9)">
				<title>Sheet.58</title>
				<v:userDefs>
					<v:ud v:nameU="msvDisableCustomConnectionPoints" v:prompt="" v:val="VT0(1):5"/>
				</v:userDefs>
				<path d="M 0.8 255.5 a 0.9 0.9 0 0 1 -0.8 -1.3 L 2.9 248 a 0.9 0.9 0 0 1 0.4 -0.4 L 11.2 243.4 a 0.9 0.9 0 0 1 0.9 0 L 19.7 247.6 a 0.9 0.9 0 0 1 0.4 0.4 L 23.2 254.3 a 0.9 0.9 0 0 1 -1.6 0.8 L 18.6 249 L 11.6 245.2 L 4.4 249 L 1.6 255 a 0.9 0.9 0 0 1 -0.8 0.5 Z" class="st2"/>
			</g>
			<g id="shape59-121" v:mID="59" v:groupContext="shape" transform="translate(20.9,-8.6)">
				<title>Sheet.59</title>
				<v:userDefs>
					<v:ud v:nameU="msvDisableCustomConnectionPoints" v:prompt="" v:val="VT0(1):5"/>
				</v:userDefs>
				<path d="M 0 255 a 0.6 0.6 -180 0 0 0.6 0.6 L 3.1 255.5 a 0.6 0.6 -180 0 0 0.6 -0.6 L 3.7 252.3 a 0.6 0.6 -180 0 0 -0.6 -0.6 L 0.6 251.7 a 0.6 0.6 -180 0 0 -0.6 0.6 L 0 255 Z" class="st23"/>
			</g>
			<g id="shape60-123" v:mID="60" v:groupContext="shape" transform="translate(18.9,-2.8)">
				<title>Sheet.60</title>
				<v:userDefs>
					<v:ud v:nameU="msvDisableCustomConnectionPoints" v:prompt="" v:val="VT0(1):5"/>
				</v:userDefs>
				<path d="M 3.8 252.4 L 7.3 250 a 0.6 0.6 -180 0 0 -0.3 -0.1 L 0.6 249.9 a 0.6 0.6 -180 0 0 -0.3 0.1 L 3.8 252.4 Z M 7.6 254.9 L 7.6 250.6 L 4.3 252.7 L 7.6 254.9 Z M 3.3 252.7 L 0 250.6 L 0 254.9 L 3.3 252.7 Z M 7.6 255.5 L 7.6 255.5 L 7.6 255.5 L 7.6 255.5 Z M 0 255.5 L 0 255.5 L 0 255.5 L 0 255.5 Z M 0.1 255.5 L 7.5 255.5 L 3.8 253.1 L 0.1 255.5 Z" class="st23"/>
			</g>
			<g id="shape52-125" v:mID="52" v:groupContext="groupContent">
				<v:textBlock v:margins="rect(0,0,0,0)"/>
				<v:textRect cx="17.28" cy="261.081" width="69.12" height="11.0818"/>
				<text x="8.1" y="263.9" class="st11" v:langID="1033"><v:paragraph v:horizAlign="1"/><v:tabList/>local</text>			</g>
		</g>
	</g>
</svg>
